# xmcd CD database file
#
# Track frame offsets:
#	150
#	22947
#	44106
#	60830
#	76576
#	97833
#	116422
#	130867
#	142076
#	157168
#	174834
#	189825
#
# Disc length: 2756 seconds
#
# Revision: 0
# Processed by: cddbd v1.5.2PL0 Copyright (c) Steve Scherf et al.
# Submitted via: CDex 1.51
#
DISCID=8c0ac20c
DTITLE=Chill n Jazz - Chill n Jazz
DYEAR=1900
DGENRE=Jazz
TTITLE0=Fly With Me - Render
TTITLE1=The Man I Love - Dual Sessions
TTITLE2=True - Jamie Lancaster
TTITLE3=Creep - Karen Souza
TTITLE4=In The Air Tonight - James Farrelli
TTITLE5=Take On Me - Eve St. Jones
TTITLE6=Don't You (Forget About Me) - Stella Starlight Trio
TTITLE7=Sweet Dreams - 48st Street Collective
TTITLE8=Walking On Sunshine - Jazzystics
TTITLE9=Seductive Soul - Von Mondo
TTITLE10=Lost Weekend - Sixth Finger
TTITLE11=Haunted Night - DJ Style
EXTD=
EXTT0=
EXTT1=
EXTT2=
EXTT3=
EXTT4=
EXTT5=
EXTT6=
EXTT7=
EXTT8=
EXTT9=
EXTT10=
EXTT11=
PLAYORDER=
